<?xml version="1.0" encoding="UTF-8"?>
<svg id="Layer_2" data-name="Layer 2" xmlns="http://www.w3.org/2000/svg" viewBox="0 0 47.14 47.05">
  <defs>
    <style>
      .cls-1 {
        fill: #fff;
        fill-rule: evenodd;
      }
    </style>
  </defs>
  <g id="Layer_1-2" data-name="Layer 1">
    <g>
      <path class="cls-1" d="M3.2,0h11.4c.63.67,1.4,2.12.96,5.02-.69,4.58-10.55,14.79-13.23,17.82l15.07,24.22H3.2c-1.76,0-3.2-1.44-3.2-3.21V3.21C0,1.44,1.44,0,3.2,0Z"/>
      <path class="cls-1" d="M32.72,0h11.21c1.76,0,3.2,1.44,3.2,3.21v40.64c0,1.76-1.44,3.21-3.2,3.21h-3.94c-5.55-1.24-7.83-3.76-8.69-4.93-.95-1.3-19.55-28.8-19.55-28.8C20.27,4.59,29.88.94,32.72,0h0ZM27.81,8.82c-3.84,0-6.96,3.12-6.96,6.96s3.12,6.96,6.96,6.96,6.96-3.12,6.96-6.96-3.12-6.96-6.96-6.96h0ZM32.91,25.43c-1.46,0-2.64,1.18-2.64,2.64s1.18,2.64,2.64,2.64,2.64-1.18,2.64-2.64-1.18-2.64-2.64-2.64h0ZM39.96,3.11c-2.15,0-3.89,1.74-3.89,3.89s1.74,3.89,3.89,3.89,3.89-1.74,3.89-3.89-1.74-3.89-3.89-3.89Z"/>
    </g>
  </g>
</svg>