<?xml version="1.0" encoding="UTF-8"?>
<svg id="Layer_2" data-name="Layer 2" xmlns="http://www.w3.org/2000/svg" viewBox="0 0 250.83 191.23">
  <defs>
    <style>
      .cls-1 {
        fill: #5d2e89;
      }

      .cls-1, .cls-2 {
        fill-rule: evenodd;
      }

      .cls-2 {
        fill: #9ec43b;
      }

      .cls-3 {
        fill: #5c0f8b;
      }
    </style>
  </defs>
  <g id="Layer_1-2" data-name="Layer 1">
    <g>
      <g>
        <path class="cls-3" d="M0,123.69c3.26,0,5.9,2.65,5.9,5.91v24.56h1.52c.44,0,.8-.06,1.09-.18.29-.12.6-.37.96-.74l10.55-11.32c.33-.35.66-.64.99-.86.33-.22.77-.33,1.32-.33h5.34l-12.3,13.1c-.31.37-.61.7-.91.99-.29.29-.63.54-1,.76.4.26.75.57,1.07.91.32.34.62.73.91,1.17l13.06,16.5h-5.27c-.48,0-.9-.09-1.24-.28-.34-.18-.66-.48-.97-.87l-10.98-13.69c-.33-.46-.66-.77-.99-.91-.33-.14-.83-.22-1.48-.22h-1.65v15.97H0v-50.47Z"/>
        <path class="cls-3" d="M45.9,140.2c2.44,0,4.65.41,6.61,1.22,1.97.82,3.64,1.97,5.01,3.47,1.37,1.5,2.43,3.3,3.17,5.43.73,2.12,1.1,4.49,1.1,7.11s-.37,5.01-1.1,7.13c-.74,2.11-1.79,3.92-3.17,5.41-1.37,1.5-3.05,2.65-5.01,3.45-1.96.8-4.17,1.2-6.61,1.2s-4.65-.4-6.61-1.2c-1.97-.81-3.64-1.95-5.03-3.45-1.38-1.49-2.45-3.3-3.2-5.41-.75-2.12-1.12-4.49-1.12-7.13s.37-4.99,1.12-7.11c.75-2.12,1.81-3.93,3.2-5.43,1.39-1.5,3.06-2.65,5.03-3.47,1.97-.81,4.17-1.22,6.61-1.22M45.9,170.03c3.3,0,5.76-1.1,7.39-3.32,1.63-2.21,2.44-5.3,2.44-9.26s-.82-7.08-2.44-9.31c-1.63-2.22-4.09-3.33-7.39-3.33-1.67,0-3.12.29-4.35.86-1.23.57-2.26,1.4-3.08,2.47-.82,1.08-1.44,2.4-1.85,3.98-.41,1.57-.61,3.35-.61,5.33s.2,3.75.61,5.31c.41,1.56,1.02,2.88,1.85,3.94.83,1.07,1.85,1.89,3.08,2.46,1.23.57,2.68.86,4.35.86"/>
        <path class="cls-3" d="M67.73,174.16v-33.43h3.49c.84,0,1.36.41,1.58,1.22l.43,3.43c1.23-1.52,2.61-2.76,4.14-3.73,1.53-.96,3.3-1.45,5.33-1.45,2.26,0,4.1.63,5.49,1.88,1.39,1.25,2.4,2.95,3.02,5.08.46-1.21,1.07-2.26,1.83-3.14.76-.88,1.61-1.6,2.56-2.18.94-.57,1.95-.99,3.02-1.25,1.06-.27,2.15-.4,3.25-.4,1.76,0,3.32.28,4.7.84,1.37.56,2.54,1.38,3.49,2.46.96,1.08,1.69,2.41,2.19,3.98.51,1.57.76,3.37.76,5.4v21.28h-5.87v-21.28c0-2.62-.57-4.6-1.71-5.96-1.14-1.35-2.8-2.03-4.98-2.03-.97,0-1.89.17-2.75.51-.87.34-1.63.84-2.29,1.5-.66.66-1.18,1.49-1.57,2.49-.38,1-.58,2.16-.58,3.48v21.28h-5.87v-21.28c0-2.69-.54-4.69-1.61-6.01-1.08-1.32-2.65-1.98-4.72-1.98-1.45,0-2.8.39-4.04,1.17-1.24.78-2.38,1.84-3.42,3.18v24.92h-5.87Z"/>
        <path class="cls-3" d="M120.55,185.36v-44.63h3.5c.83,0,1.36.41,1.58,1.22l.49,3.96c1.43-1.74,3.06-3.13,4.9-4.19,1.83-1.06,3.95-1.58,6.35-1.58,1.91,0,3.65.37,5.21,1.11,1.56.74,2.89,1.83,3.99,3.27,1.1,1.44,1.95,3.23,2.54,5.36.59,2.13.89,4.59.89,7.36,0,2.47-.33,4.76-.99,6.88-.66,2.12-1.61,3.96-2.84,5.51-1.23,1.55-2.74,2.77-4.54,3.66-1.79.89-3.81,1.34-6.05,1.34-2.07,0-3.83-.34-5.29-1.02-1.46-.68-2.75-1.65-3.87-2.9v20.54c-3.24,0-5.87-2.63-5.87-5.88M135.42,144.88c-1.91,0-3.59.44-5.03,1.32-1.44.88-2.76,2.13-3.97,3.73v16.17c1.08,1.45,2.26,2.48,3.54,3.07,1.29.59,2.72.89,4.3.89,3.1,0,5.48-1.11,7.15-3.33,1.67-2.22,2.51-5.39,2.51-9.51,0-2.18-.19-4.05-.58-5.61s-.94-2.84-1.66-3.84c-.73-1-1.62-1.74-2.67-2.19-1.05-.46-2.25-.7-3.59-.7"/>
        <path class="cls-3" d="M155.64,174.16v-33.43h3.36c.64,0,1.07.12,1.32.36.24.24.41.66.49,1.25l.4,5.22c1.14-2.33,2.56-4.15,4.24-5.47,1.68-1.31,3.65-1.96,5.92-1.96.92,0,1.76.11,2.5.31.75.21,1.44.5,2.08.87l-.76,4.39c-.16.55-.49.82-1.02.82-.31,0-.78-.11-1.42-.31-.64-.21-1.53-.32-2.67-.32-2.04,0-3.75.59-5.13,1.78-1.37,1.19-2.52,2.92-3.45,5.18v21.28h-5.87Z"/>
        <path class="cls-3" d="M188.74,130.23c0,.57-.11,1.11-.35,1.6-.23.49-.54.94-.92,1.32-.38.39-.83.69-1.34.91-.51.22-1.05.33-1.61.33s-1.11-.11-1.6-.33c-.49-.22-.93-.52-1.32-.91-.38-.38-.69-.82-.91-1.32-.22-.49-.33-1.03-.33-1.6s.11-1.12.33-1.64c.22-.51.52-.97.91-1.35.39-.38.83-.69,1.32-.91.5-.22,1.03-.33,1.6-.33s1.11.11,1.61.33c.51.22.95.52,1.34.91.38.39.69.84.92,1.35.24.52.35,1.06.35,1.64M187.43,174.16h-5.87v-33.43h5.87v33.43Z"/>
        <path class="cls-3" d="M215.59,146.24c-.27.48-.67.72-1.22.72-.33,0-.71-.12-1.12-.36-.41-.24-.93-.51-1.53-.81-.6-.29-1.32-.57-2.16-.82-.83-.25-1.82-.38-2.96-.38-.99,0-1.88.12-2.67.38-.79.25-1.47.6-2.03,1.04-.56.44-.99.95-1.29,1.53-.29.59-.45,1.22-.45,1.9,0,.86.25,1.58.75,2.15.49.57,1.15,1.07,1.96,1.48.82.42,1.74.79,2.77,1.11,1.03.32,2.1.66,3.18,1.02,1.08.36,2.15.77,3.18,1.2,1.03.44,1.95.99,2.77,1.65.81.66,1.47,1.47,1.96,2.42.49.96.74,2.11.74,3.45,0,1.54-.28,2.96-.83,4.27-.55,1.31-1.36,2.44-2.44,3.4-1.08.96-2.4,1.71-3.96,2.26-1.56.55-3.36.82-5.41.82-2.33,0-4.44-.38-6.33-1.14-1.89-.76-3.5-1.73-4.81-2.92l1.38-2.24c.18-.29.38-.51.63-.66.24-.15.56-.23.96-.23s.81.15,1.25.46c.44.31.97.65,1.6,1.02.63.37,1.39.71,2.28,1.02.89.31,2,.46,3.35.46,1.14,0,2.14-.15,3-.45.86-.29,1.57-.7,2.14-1.2.57-.51,1-1.09,1.27-1.75.27-.66.41-1.36.41-2.11,0-.92-.25-1.69-.75-2.3-.49-.6-1.15-1.12-1.96-1.55-.82-.43-1.74-.8-2.79-1.12-1.04-.32-2.11-.65-3.2-1.01-1.09-.35-2.15-.75-3.2-1.2-1.04-.45-1.97-1.02-2.78-1.7-.82-.68-1.47-1.53-1.96-2.53-.49-1-.74-2.22-.74-3.65,0-1.27.26-2.5.79-3.68.53-1.18,1.3-2.21,2.31-3.1,1.01-.89,2.25-1.6,3.72-2.13,1.47-.53,3.16-.79,5.05-.79,2.2,0,4.17.35,5.92,1.04,1.75.69,3.26,1.64,4.54,2.85l-1.32,2.14Z"/>
        <path class="cls-3" d="M236.98,140.2c2,0,3.85.34,5.54,1.01,1.69.67,3.15,1.64,4.39,2.9,1.23,1.26,2.19,2.83,2.88,4.69.7,1.86,1.04,3.98,1.04,6.35,0,.92-.1,1.54-.3,1.85-.2.31-.57.46-1.12.46h-22.22c.04,2.11.33,3.95.86,5.51.53,1.56,1.25,2.87,2.17,3.91.93,1.04,2.02,1.83,3.3,2.34,1.27.52,2.7.78,4.29.78,1.47,0,2.74-.17,3.8-.51,1.07-.34,1.99-.71,2.76-1.11.77-.39,1.41-.76,1.93-1.1.52-.34.96-.51,1.34-.51.48,0,.86.18,1.12.56l1.65,2.14c-.72.88-1.59,1.65-2.6,2.29-1.01.65-2.09,1.18-3.25,1.6-1.16.42-2.35.73-3.58.94-1.23.21-2.45.32-3.66.32-2.31,0-4.44-.39-6.38-1.17-1.95-.78-3.63-1.93-5.05-3.43-1.42-1.51-2.52-3.37-3.31-5.59-.8-2.22-1.19-4.78-1.19-7.66,0-2.33.35-4.51,1.07-6.53.71-2.02,1.74-3.78,3.08-5.26,1.34-1.49,2.98-2.65,4.91-3.5,1.94-.85,4.11-1.27,6.53-1.27M237.12,144.52c-2.84,0-5.07.82-6.7,2.46-1.62,1.64-2.64,3.91-3.03,6.82h18.17c0-1.36-.19-2.61-.56-3.75-.38-1.13-.92-2.12-1.65-2.94-.72-.82-1.61-1.46-2.65-1.92-1.05-.45-2.24-.67-3.58-.67"/>
      </g>
      <path class="cls-1" d="M79.85,0h25.66c1.41,1.51,3.15,4.76,2.17,11.29-1.56,10.31-23.74,33.28-29.78,40.09l33.91,54.49h-31.97c-3.96,0-7.2-3.25-7.2-7.21V7.21c0-3.97,3.24-7.21,7.2-7.21Z"/>
      <path class="cls-2" d="M146.28,0h25.23c3.96,0,7.2,3.25,7.2,7.21v91.44c0,3.97-3.24,7.21-7.2,7.21h-8.87c-12.49-2.79-17.61-8.45-19.55-11.09-2.14-2.92-43.98-64.81-43.98-64.81C118.26,10.33,139.88,2.12,146.28,0h0ZM135.22,19.85c-8.65,0-15.67,7.02-15.67,15.67s7.02,15.67,15.67,15.67,15.67-7.02,15.67-15.67-7.02-15.67-15.67-15.67h0ZM146.7,57.22c-3.28,0-5.94,2.66-5.94,5.94s2.66,5.94,5.94,5.94,5.94-2.66,5.94-5.94-2.66-5.94-5.94-5.94h0ZM162.56,7.01c-4.83,0-8.76,3.92-8.76,8.76s3.92,8.76,8.76,8.76,8.76-3.92,8.76-8.76-3.92-8.76-8.76-8.76Z"/>
    </g>
  </g>
</svg>