<?xml version="1.0" encoding="UTF-8"?>
<svg id="Layer_2" data-name="Layer 2" xmlns="http://www.w3.org/2000/svg" viewBox="0 0 297.17 63.2">
  <defs>
    <style>
      .cls-1 {
        fill: #fff;
        fill-rule: evenodd;
      }
    </style>
  </defs>
  <g id="Layer_1-2" data-name="Layer 1">
    <g>
      <path class="cls-1" d="M68.44,47.09h-5.72V0s5.56.23,5.56,5.88c0,2.83.04,13.19.08,22.81h2.4l12.35-12.83h5.56l-13.13,13.92,13.75,17.24h-4.87s-1.15.08-1.62-.46c-.46-.54-11.66-14.38-11.66-14.38h-2.77c.03,8.12.06,14.92.06,14.92Z"/>
      <path class="cls-1" d="M232.53,15.87h5.39v31.29h-5.39V15.87h0ZM235.26,2.42c2.11,0,3.81,1.71,3.81,3.81s-1.71,3.81-3.81,3.81-3.81-1.71-3.81-3.81,1.71-3.81,3.81-3.81Z"/>
      <path class="cls-1" d="M208.32,47.07V16h3.55s1.15.05,1.2,1.31c.05,1.26.33,4.82.33,4.82,0,0,2.62-4.76,5.52-5.91,2.9-1.15,6.67-.82,8.25.16l-.6,4.05s-.49,1.04-.98.93c-.49-.11-3.61-1.31-6.94-.05-3.33,1.26-4.97,5.91-4.97,5.91v19.81l-5.36.05Z"/>
      <path class="cls-1" d="M105.64,19.56c-6.6,0-9.26,5.36-9.26,11.97s2.49,11.97,9.26,11.97,9.26-5.36,9.26-11.97-2.66-11.97-9.26-11.97h0ZM105.64,15.55c10.51,0,14.75,7.15,14.75,15.97s-3.97,15.97-14.75,15.97-14.75-7.15-14.75-15.97,4.24-15.97,14.75-15.97Z"/>
      <path class="cls-1" d="M131.56,46.87h-5.41V15.87h3.49s1.08-.06,1.26,1.38c.18,1.44.18,2.89.18,2.89,0,0,3.61-4.21,7.63-4.63,4.03-.42,7.82,1.38,9.32,6.26,0,0,2.46-5.06,7.03-6.08,4.57-1.02,13.35.65,13.35,9.69v21.55h-5.35s-.12-20.34-.3-21.97c-.18-1.62-1.8-5.3-6.43-5.24-4.63.06-6.37,4.57-6.37,5.84v21.49h-5.47v-22.33s-1.14-4.88-5.53-4.94c-4.39-.06-7.33,3.79-7.33,3.79l-.06,23.29Z"/>
      <path class="cls-1" d="M175.57,15.84h3.38s1.2.14,1.27,1.34c.07,1.2.21,3.59.21,3.59,0,0,4.36-4.58,8.09-5.21,3.73-.63,11.26-.14,13.65,8.88s-.84,18.6-6.26,21.63c-5.42,3.03-12.67,1.06-14.85-1.97v19.1s-5.42-.35-5.42-5.28-.07-42.07-.07-42.07h0ZM180.99,40.01s3.38,3.59,7.74,3.52c4.36-.07,8.3-4.16,8.66-11.49.35-7.33-2.89-12.26-7.88-12.33-5-.07-8.52,4.51-8.52,4.51v15.78Z"/>
      <path class="cls-1" d="M265.37,19.1l-1.34,2.42s-.65.38-1.4.05-4.52-2.42-7.9-2.15c-3.39.27-5.22,3.18-4.84,5.49.38,2.31,4.41,3.28,7.53,4.36,3.12,1.08,8.49,2.69,8.66,7.91.16,5.22-3.66,9.85-10.54,10.5-6.88.65-11.51-3.77-11.51-3.77l1.72-2.8s.91-.59,1.77.05c.86.65,3.82,2.53,7.74,2.53s5.75-3.07,5.7-5.11c-.05-2.05-2.15-4.04-7.15-5.33-5-1.29-9.09-4.04-9.25-8.67-.16-4.63,4.62-8.99,10.43-9.15,6.29-.32,10.38,3.66,10.38,3.66Z"/>
      <path class="cls-1" d="M296.72,42.67l-1.86-2.32s-.75-.25-1.31.1c-.55.35-6.74,4.38-13.03,2.01-6.29-2.37-5.39-11.07-5.39-11.07l21.44-.05s.6-.35.6-1.71-.25-8.2-4.43-11.52c-4.18-3.32-12.73-3.72-17.36.15-4.63,3.88-6.69,10.47-4.88,18.92,1.81,8.45,10.22,11.37,17.41,10.07,7.2-1.31,8.81-4.58,8.81-4.58h0ZM292.49,28.23h-17.31s.16-.86.55-2.03c1.37-4.16,3.81-6.64,8.25-6.82,3.89-.16,6.63,1.89,7.88,5.43.67,1.9.63,3.42.63,3.42Z"/>
      <path class="cls-1" d="M3.2.05h11.4c.63.67,1.4,2.12.96,5.02-.69,4.58-10.55,14.79-13.23,17.82l15.07,24.22H3.2c-1.76,0-3.2-1.44-3.2-3.21V3.25C0,1.49,1.44.05,3.2.05Z"/>
      <path class="cls-1" d="M32.72.05h11.21c1.76,0,3.2,1.44,3.2,3.21v40.64c0,1.76-1.44,3.21-3.2,3.21h-3.94c-5.55-1.24-7.83-3.76-8.69-4.93-.95-1.3-19.55-28.8-19.55-28.8C20.27,4.64,29.88.99,32.72.05h0ZM27.8,8.87c-3.84,0-6.96,3.12-6.96,6.96s3.12,6.96,6.96,6.96,6.96-3.12,6.96-6.96-3.12-6.96-6.96-6.96h0ZM32.91,25.47c-1.46,0-2.64,1.18-2.64,2.64s1.18,2.64,2.64,2.64,2.64-1.18,2.64-2.64-1.18-2.64-2.64-2.64h0ZM39.96,3.16c-2.15,0-3.89,1.74-3.89,3.89s1.74,3.89,3.89,3.89,3.89-1.74,3.89-3.89-1.74-3.89-3.89-3.89Z"/>
    </g>
  </g>
</svg>