<?xml version="1.0" encoding="UTF-8"?>
<svg id="Layer_2" data-name="Layer 2" xmlns="http://www.w3.org/2000/svg" viewBox="0 0 284.22 60.44">
  <defs>
    <style>
      .cls-1 {
        fill: #5d2e89;
      }

      .cls-1, .cls-2 {
        fill-rule: evenodd;
      }

      .cls-2 {
        fill: #9ec43b;
      }
    </style>
  </defs>
  <g id="Layer_1-2" data-name="Layer 1">
    <g>
      <path class="cls-1" d="M65.46,45.03h-5.47V0s5.32.22,5.32,5.62c0,2.71.04,12.61.07,21.81h2.29l11.81-12.28h5.32l-12.56,13.31,13.15,16.49h-4.66s-1.1.07-1.55-.44c-.44-.52-11.15-13.75-11.15-13.75h-2.64c.03,7.77.06,14.27.06,14.27Z"/>
      <path class="cls-1" d="M222.4,15.18h5.15v29.93h-5.15V15.18h0ZM225.01,2.32c2.01,0,3.65,1.63,3.65,3.65s-1.63,3.65-3.65,3.65-3.65-1.63-3.65-3.65,1.63-3.65,3.65-3.65Z"/>
      <path class="cls-1" d="M199.25,45.02V15.3h3.4s1.1.05,1.15,1.26c.05,1.2.31,4.61.31,4.61,0,0,2.51-4.55,5.28-5.65,2.77-1.1,6.38-.78,7.89.16l-.58,3.87s-.47.99-.94.89c-.47-.1-3.45-1.26-6.64-.05-3.19,1.2-4.76,5.65-4.76,5.65v18.94l-5.12.05Z"/>
      <path class="cls-1" d="M101.03,18.71c-6.31,0-8.86,5.12-8.86,11.44s2.38,11.44,8.86,11.44,8.86-5.12,8.86-11.44-2.55-11.44-8.86-11.44h0ZM101.03,14.88c10.06,0,14.11,6.84,14.11,15.28s-3.79,15.28-14.11,15.28-14.11-6.84-14.11-15.28,4.05-15.28,14.11-15.28Z"/>
      <path class="cls-1" d="M125.83,44.83h-5.18V15.18h3.34s1.04-.06,1.21,1.32c.17,1.38.17,2.76.17,2.76,0,0,3.45-4.03,7.3-4.43,3.85-.4,7.47,1.32,8.91,5.99,0,0,2.36-4.84,6.73-5.81,4.37-.98,12.76.62,12.76,9.27v20.61h-5.12s-.11-19.46-.28-21.01c-.17-1.55-1.72-5.07-6.15-5.01-4.43.06-6.09,4.37-6.09,5.58v20.55h-5.23v-21.36s-1.09-4.66-5.29-4.72c-4.2-.06-7.01,3.63-7.01,3.63l-.06,22.28Z"/>
      <path class="cls-1" d="M167.92,15.15h3.23s1.14.13,1.21,1.28c.07,1.15.2,3.44.2,3.44,0,0,4.17-4.38,7.74-4.99,3.57-.61,10.77-.13,13.06,8.49,2.29,8.63-.81,17.79-5.99,20.69-5.18,2.9-12.12,1.01-14.2-1.89v18.26s-5.18-.34-5.18-5.05-.07-40.23-.07-40.23h0ZM173.1,38.27s3.23,3.44,7.4,3.37c4.17-.07,7.94-3.98,8.28-10.99.34-7.01-2.76-11.73-7.54-11.79-4.78-.07-8.15,4.31-8.15,4.31v15.1Z"/>
      <path class="cls-1" d="M253.81,18.27l-1.29,2.32s-.62.36-1.34.05-4.32-2.32-7.56-2.06c-3.24.26-4.99,3.04-4.63,5.25.36,2.21,4.22,3.14,7.2,4.17,2.98,1.03,8.12,2.57,8.28,7.57.15,4.99-3.5,9.42-10.08,10.04-6.58.62-11-3.6-11-3.6l1.65-2.68s.87-.57,1.7.05c.82.62,3.65,2.42,7.4,2.42s5.5-2.93,5.45-4.89c-.05-1.96-2.06-3.86-6.84-5.1-4.78-1.24-8.69-3.86-8.84-8.29-.15-4.43,4.42-8.6,9.98-8.75,6.02-.31,9.92,3.5,9.92,3.5Z"/>
      <path class="cls-1" d="M283.79,40.81l-1.78-2.21s-.72-.24-1.25.1c-.53.34-6.45,4.19-12.47,1.93s-5.15-10.59-5.15-10.59l20.51-.05s.58-.34.58-1.64-.24-7.85-4.24-11.02c-4-3.18-12.18-3.56-16.61.14-4.43,3.71-6.4,10.01-4.67,18.1,1.73,8.09,9.77,10.88,16.65,9.63,6.88-1.25,8.42-4.38,8.42-4.38h0ZM279.75,27h-16.56s.16-.83.52-1.94c1.31-3.98,3.65-6.35,7.9-6.52,3.72-.15,6.34,1.81,7.54,5.19.64,1.82.6,3.27.6,3.27Z"/>
      <path class="cls-1" d="M3.06.04h10.91c.6.64,1.34,2.02.92,4.8-.66,4.38-10.09,14.14-12.66,17.04l14.41,23.16H3.06c-1.68,0-3.06-1.38-3.06-3.07V3.11C0,1.42,1.38.04,3.06.04Z"/>
      <path class="cls-2" d="M31.3.04h10.72c1.68,0,3.06,1.38,3.06,3.07v38.87c0,1.69-1.38,3.07-3.06,3.07h-3.77c-5.31-1.18-7.48-3.59-8.31-4.71-.91-1.24-18.69-27.54-18.69-27.54C19.39,4.44,28.58.94,31.3.04h0ZM26.59,8.48c-3.68,0-6.66,2.98-6.66,6.66s2.98,6.66,6.66,6.66,6.66-2.98,6.66-6.66-2.98-6.66-6.66-6.66h0ZM31.47,24.36c-1.39,0-2.52,1.13-2.52,2.52s1.13,2.52,2.52,2.52,2.52-1.13,2.52-2.52-1.13-2.52-2.52-2.52h0ZM38.22,3.02c-2.05,0-3.72,1.67-3.72,3.72s1.67,3.72,3.72,3.72,3.72-1.67,3.72-3.72-1.67-3.72-3.72-3.72Z"/>
    </g>
  </g>
</svg>