<?xml version="1.0" encoding="UTF-8"?>
<svg id="Layer_2" data-name="Layer 2" xmlns="http://www.w3.org/2000/svg" viewBox="0 0 106.06 105.87">
  <defs>
    <style>
      .cls-1 {
        fill: #5d2e89;
      }

      .cls-1, .cls-2 {
        fill-rule: evenodd;
      }

      .cls-2 {
        fill: #9ec43b;
      }
    </style>
  </defs>
  <g id="Layer_1-2" data-name="Layer 1">
    <g>
      <path class="cls-1" d="M7.2,0h25.66c1.41,1.51,3.15,4.76,2.17,11.29-1.56,10.31-23.74,33.28-29.78,40.09l33.91,54.49H7.2c-3.96,0-7.2-3.25-7.2-7.21V7.21C0,3.25,3.24,0,7.2,0Z"/>
      <path class="cls-2" d="M73.63,0h25.23c3.96,0,7.2,3.25,7.2,7.21v91.44c0,3.97-3.24,7.21-7.2,7.21h-8.87c-12.49-2.79-17.61-8.45-19.55-11.09-2.14-2.92-43.98-64.81-43.98-64.81C45.61,10.33,67.23,2.12,73.63,0h0ZM62.57,19.85c-8.65,0-15.67,7.02-15.67,15.67s7.02,15.67,15.67,15.67,15.67-7.02,15.67-15.67-7.02-15.67-15.67-15.67h0ZM74.05,57.22c-3.28,0-5.94,2.66-5.94,5.94s2.66,5.94,5.94,5.94,5.94-2.66,5.94-5.94-2.66-5.94-5.94-5.94h0ZM89.91,7.01c-4.83,0-8.76,3.92-8.76,8.76s3.92,8.76,8.76,8.76,8.76-3.92,8.76-8.76-3.92-8.76-8.76-8.76Z"/>
    </g>
  </g>
</svg>