<?xml version="1.0" encoding="UTF-8"?>
<svg id="Layer_2" data-name="Layer 2" xmlns="http://www.w3.org/2000/svg" viewBox="0 0 136.5 104.06">
  <defs>
    <style>
      .cls-1 {
        fill-rule: evenodd;
      }

      .cls-1, .cls-2 {
        fill: #fff;
      }
    </style>
  </defs>
  <g id="Layer_1-2" data-name="Layer 1">
    <g>
      <g>
        <path class="cls-2" d="M0,67.31c1.77,0,3.21,1.44,3.21,3.21v13.37h.83c.24,0,.44-.03.59-.1.16-.06.33-.2.52-.4l5.74-6.16c.18-.19.36-.35.54-.47.18-.12.42-.18.72-.18h2.91l-6.69,7.13c-.17.2-.33.38-.5.54-.16.16-.34.29-.55.41.22.14.41.31.58.49.17.18.34.4.49.64l7.11,8.98h-2.87c-.26,0-.49-.05-.67-.15-.19-.1-.36-.26-.53-.48l-5.97-7.45c-.18-.25-.36-.42-.54-.49-.18-.08-.45-.12-.81-.12h-.9v8.69H0v-27.46Z"/>
        <path class="cls-2" d="M24.98,76.29c1.33,0,2.53.22,3.6.66,1.07.44,1.98,1.07,2.73,1.89.75.81,1.32,1.8,1.72,2.95.4,1.15.6,2.45.6,3.87s-.2,2.73-.6,3.88c-.4,1.15-.97,2.13-1.72,2.94-.75.81-1.66,1.44-2.73,1.88-1.07.44-2.27.66-3.6.66s-2.53-.22-3.6-.66c-1.07-.44-1.98-1.06-2.74-1.88-.75-.81-1.33-1.8-1.74-2.94-.41-1.15-.61-2.44-.61-3.88s.2-2.71.61-3.87c.41-1.16.99-2.14,1.74-2.95.75-.81,1.67-1.44,2.74-1.89,1.07-.44,2.27-.66,3.6-.66M24.98,92.53c1.79,0,3.13-.6,4.02-1.8.88-1.2,1.33-2.88,1.33-5.04s-.44-3.85-1.33-5.06c-.89-1.21-2.23-1.81-4.02-1.81-.91,0-1.7.16-2.37.47-.67.31-1.23.76-1.68,1.35-.45.59-.78,1.31-1,2.16-.22.86-.33,1.82-.33,2.9s.11,2.04.33,2.89c.22.85.56,1.57,1,2.15.45.58,1.01,1.03,1.68,1.34.67.31,1.46.47,2.37.47"/>
        <path class="cls-2" d="M36.86,94.77v-18.19h1.9c.46,0,.74.22.86.66l.23,1.87c.67-.82,1.42-1.5,2.25-2.03.83-.52,1.8-.79,2.9-.79,1.23,0,2.23.34,2.99,1.02.76.68,1.31,1.6,1.64,2.77.25-.66.58-1.23.99-1.71.41-.48.88-.87,1.39-1.18.51-.31,1.06-.54,1.64-.68.58-.14,1.17-.22,1.77-.22.96,0,1.81.15,2.56.46.75.31,1.38.75,1.9,1.34.52.59.92,1.31,1.19,2.17.28.85.41,1.83.41,2.94v11.58h-3.19v-11.58c0-1.43-.31-2.51-.93-3.24-.62-.74-1.53-1.11-2.71-1.11-.53,0-1.03.09-1.5.28-.47.19-.89.46-1.25.82-.36.36-.64.81-.85,1.36-.21.55-.31,1.18-.31,1.89v11.58h-3.19v-11.58c0-1.46-.29-2.55-.88-3.27-.59-.72-1.44-1.08-2.57-1.08-.79,0-1.52.21-2.2.64-.68.42-1.3,1-1.86,1.73v13.56h-3.19Z"/>
        <path class="cls-2" d="M65.6,100.86v-24.28h1.9c.45,0,.74.22.86.66l.27,2.16c.78-.94,1.67-1.71,2.66-2.28,1-.57,2.15-.86,3.45-.86,1.04,0,1.99.2,2.83.6.85.4,1.57.99,2.17,1.78.6.78,1.06,1.76,1.38,2.92.32,1.16.48,2.5.48,4,0,1.34-.18,2.59-.54,3.75-.36,1.15-.87,2.15-1.54,3-.67.84-1.49,1.51-2.47,1.99-.98.48-2.07.73-3.29.73-1.12,0-2.08-.19-2.88-.56-.79-.37-1.5-.9-2.11-1.58v11.18c-1.76,0-3.19-1.43-3.19-3.2M73.69,78.84c-1.04,0-1.95.24-2.74.72-.78.48-1.5,1.16-2.16,2.03v8.8c.59.79,1.23,1.35,1.93,1.67.7.32,1.48.49,2.34.49,1.69,0,2.98-.6,3.89-1.81.91-1.21,1.37-2.93,1.37-5.17,0-1.18-.11-2.2-.31-3.05s-.51-1.55-.91-2.09c-.4-.55-.88-.94-1.45-1.19-.57-.25-1.23-.38-1.96-.38"/>
        <path class="cls-2" d="M84.69,94.77v-18.19h1.83c.35,0,.58.06.72.2.13.13.22.36.27.68l.22,2.84c.62-1.27,1.39-2.26,2.31-2.97.91-.71,1.99-1.07,3.22-1.07.5,0,.96.06,1.36.17.41.11.78.27,1.13.48l-.41,2.39c-.08.3-.27.45-.56.45-.17,0-.43-.06-.77-.17-.35-.11-.83-.17-1.45-.17-1.11,0-2.04.32-2.79.97-.75.65-1.37,1.59-1.88,2.82v11.58h-3.19Z"/>
        <path class="cls-2" d="M102.71,70.87c0,.31-.06.6-.19.87-.12.27-.29.51-.5.72-.21.21-.45.38-.73.49-.28.12-.57.18-.88.18s-.6-.06-.87-.18c-.27-.12-.51-.28-.72-.49-.21-.21-.37-.45-.49-.72-.12-.27-.18-.56-.18-.87s.06-.61.18-.89c.12-.28.28-.53.49-.74.21-.21.45-.37.72-.49.27-.12.56-.18.87-.18s.6.06.88.18c.28.12.52.28.73.49.21.21.38.46.5.74.13.28.19.58.19.89M101.99,94.77h-3.19v-18.19h3.19v18.19Z"/>
        <path class="cls-2" d="M117.32,79.58c-.14.26-.37.39-.66.39-.18,0-.38-.07-.61-.2-.23-.13-.51-.28-.83-.44-.33-.16-.72-.31-1.18-.45-.45-.14-.99-.2-1.61-.2-.54,0-1.02.07-1.46.2-.43.14-.8.33-1.1.57-.3.24-.54.52-.7.83-.16.32-.24.66-.24,1.03,0,.47.14.86.41,1.17.27.31.62.58,1.07.81.44.23.94.43,1.51.6.56.17,1.14.36,1.73.56.59.2,1.17.42,1.73.66.56.24,1.06.54,1.51.9.44.36.8.8,1.07,1.32.27.52.4,1.15.4,1.88,0,.84-.15,1.61-.45,2.32-.3.71-.74,1.33-1.33,1.85-.59.52-1.3.93-2.15,1.23-.85.3-1.83.45-2.94.45-1.27,0-2.42-.21-3.45-.62-1.03-.41-1.9-.94-2.62-1.59l.75-1.22c.1-.16.21-.28.34-.36.13-.08.31-.13.52-.13s.44.08.68.25c.24.17.53.36.87.56.34.2.75.39,1.24.56.48.17,1.09.25,1.82.25.62,0,1.17-.08,1.63-.24.47-.16.85-.38,1.17-.66.31-.28.54-.59.69-.95.15-.36.22-.74.22-1.15,0-.5-.14-.92-.41-1.25-.27-.33-.62-.61-1.07-.84-.44-.23-.95-.44-1.52-.61-.57-.17-1.15-.36-1.74-.55-.59-.19-1.17-.41-1.74-.66-.57-.25-1.07-.55-1.52-.92-.44-.37-.8-.83-1.07-1.37-.27-.54-.4-1.21-.4-1.99,0-.69.14-1.36.43-2,.29-.64.7-1.2,1.26-1.69.55-.49,1.23-.87,2.03-1.16.8-.29,1.72-.43,2.75-.43,1.2,0,2.27.19,3.22.57.95.38,1.77.89,2.47,1.55l-.72,1.17Z"/>
        <path class="cls-2" d="M128.96,76.29c1.09,0,2.09.18,3.01.55.92.37,1.72.89,2.39,1.58.67.69,1.19,1.54,1.57,2.55.38,1.01.57,2.16.57,3.46,0,.5-.05.84-.16,1.01-.11.17-.31.25-.61.25h-12.09c.02,1.15.18,2.15.47,3,.29.85.68,1.56,1.18,2.13.5.57,1.1.99,1.8,1.27.69.28,1.47.42,2.33.42.8,0,1.49-.09,2.07-.28.58-.19,1.08-.39,1.5-.6.42-.21.77-.42,1.05-.6.28-.19.52-.28.73-.28.26,0,.47.1.61.31l.9,1.17c-.39.48-.87.9-1.42,1.25-.55.35-1.14.64-1.77.87-.63.23-1.28.4-1.95.51-.67.11-1.33.17-1.99.17-1.26,0-2.41-.21-3.47-.64-1.06-.43-1.97-1.05-2.75-1.87-.77-.82-1.37-1.83-1.8-3.04-.43-1.21-.65-2.6-.65-4.17,0-1.27.19-2.45.58-3.55.39-1.1.95-2.06,1.68-2.86.73-.81,1.62-1.44,2.67-1.9,1.05-.46,2.24-.69,3.55-.69M129.03,78.64c-1.54,0-2.76.45-3.64,1.34-.88.89-1.43,2.13-1.65,3.71h9.89c0-.74-.1-1.42-.31-2.04-.2-.62-.5-1.15-.9-1.6-.39-.45-.88-.79-1.44-1.04-.57-.24-1.22-.37-1.95-.37"/>
      </g>
      <path class="cls-1" d="M43.45,0h13.96c.77.82,1.72,2.59,1.18,6.14-.85,5.61-12.92,18.11-16.2,21.82l18.46,29.65h-17.4c-2.16,0-3.92-1.77-3.92-3.93V3.93c0-2.16,1.76-3.93,3.92-3.93Z"/>
      <path class="cls-1" d="M79.6,0h13.73c2.16,0,3.92,1.77,3.92,3.93v49.76c0,2.16-1.76,3.93-3.92,3.93h-4.83c-6.79-1.52-9.58-4.6-10.64-6.04-1.16-1.59-23.93-35.27-23.93-35.27C64.36,5.62,76.12,1.15,79.6,0h0ZM73.58,10.8c-4.71,0-8.53,3.82-8.53,8.53s3.82,8.53,8.53,8.53,8.53-3.82,8.53-8.53-3.82-8.53-8.53-8.53h0ZM79.83,31.14c-1.78,0-3.23,1.45-3.23,3.23s1.45,3.23,3.23,3.23,3.23-1.45,3.23-3.23-1.45-3.23-3.23-3.23h0ZM88.46,3.81c-2.63,0-4.77,2.13-4.77,4.77s2.13,4.77,4.77,4.77,4.77-2.13,4.77-4.77-2.13-4.77-4.77-4.77Z"/>
    </g>
  </g>
</svg>